<svg width="26" height="27" viewBox="0 0 26 27" fill="none" xmlns="http://www.w3.org/2000/svg">
<path d="M22.1562 22.32L21.9732 22.1369H21.7143H7.47619C6.45946 22.1369 5.625 21.3024 5.625 20.2857V13.4762C5.625 12.4595 6.45946 11.625 7.47619 11.625H22.9524C23.9691 11.625 24.8036 12.4595 24.8036 13.4762V24.9673L22.1562 22.32Z" stroke="#E19722" stroke-width="1.25"/>
<path d="M3.71429 12.375H3.4554L3.27234 12.5581L0.625 15.2054V2.47619C0.625 1.45946 1.45946 0.625 2.47619 0.625H17.9524C18.9691 0.625 19.8036 1.45946 19.8036 2.47619V10.5238C19.8036 11.5405 18.9691 12.375 17.9524 12.375H3.71429Z" stroke="#E19722" stroke-width="1.25"/>
</svg>
