<svg width="24" height="24" viewBox="0 0 24 24" fill="none" xmlns="http://www.w3.org/2000/svg">
<path d="M23.376 10.1992C23.2798 7.24466 23.1769 4.29015 23.1121 1.3346C23.0933 0.476567 22.82 0.281133 22.0315 0.264411C19.529 0.211633 17.0275 0.121232 14.5255 0.0438943C14.4785 0.0423267 14.4147 0.0747249 14.3886 0C14.235 0 14.0814 0 13.9277 0C13.8509 0 13.7741 0 13.6973 0C13.436 0 13.1753 0 12.914 0C12.7191 0.0877887 12.5649 0.22522 12.416 0.377282C11.5067 1.3022 10.5928 2.22293 9.68042 3.14472C6.81893 6.03547 3.95378 8.92309 1.09699 11.8186C-0.337414 13.2723 -0.374516 15.5187 1.04108 16.9761C2.86949 18.8589 4.72768 20.7129 6.5796 22.5732C7.0661 23.0618 7.65867 23.3706 8.33642 23.5148C8.40331 23.5289 8.49423 23.5065 8.53656 23.5937C8.85897 23.5937 9.18191 23.5937 9.50432 23.5937C9.73634 23.5342 9.97044 23.4824 10.1998 23.414C10.7386 23.2525 11.2089 22.9672 11.6029 22.5695C14.6034 19.5434 17.6007 16.5147 20.5986 13.4865C21.4195 12.6572 22.2337 11.8206 23.0635 11.0002C23.296 10.7687 23.3864 10.5205 23.376 10.1992ZM21.8935 10.2357C18.1641 13.9976 14.4403 17.7657 10.7093 21.526C9.76717 22.4755 8.38972 22.4587 7.44495 21.5067C5.66618 19.7133 3.88951 17.9178 2.11335 16.1218C1.12887 15.1258 1.12991 13.728 2.11335 12.7351C5.81302 8.99782 9.51321 5.26053 13.2113 1.52115C13.3028 1.42866 13.3874 1.37536 13.5254 1.37954C16.2191 1.46471 18.9129 1.54466 21.6066 1.6267C21.6437 1.62775 21.6808 1.63559 21.7895 1.6497C21.7895 2.13044 21.7785 2.5976 21.7916 3.06424C21.8548 5.35145 21.9243 7.63866 21.9928 9.92535C21.9959 10.0419 21.9886 10.1401 21.8935 10.2357Z" fill="#E19722"/>
<path d="M14.4905 13.5838C14.8798 13.0805 15.0251 12.5481 14.9211 11.9706C14.7821 11.1994 14.3342 10.6601 13.5865 10.4134C12.8319 10.1647 12.1484 10.3298 11.5637 10.8701C11.3385 11.0786 11.1273 11.3028 10.9105 11.5197C10.7495 11.6801 10.5598 11.77 10.3299 11.7287C10.0932 11.6864 9.91868 11.551 9.84082 11.3232C9.75407 11.0698 9.81312 10.8383 10.0033 10.6465C10.3712 10.276 10.7454 9.91179 11.108 9.53608C11.3829 9.25128 11.3766 8.82697 11.1096 8.56465C10.8415 8.30129 10.4235 8.30338 10.1376 8.57876C10.0399 8.67282 9.96101 8.78726 9.82932 8.94559C9.70286 8.78935 9.62657 8.67125 9.52781 8.57772C9.24929 8.31435 8.83647 8.31905 8.57468 8.57667C8.30399 8.84265 8.29981 9.26017 8.57102 9.54809C8.66926 9.65208 8.78004 9.74353 8.87514 9.83132C8.84693 9.88409 8.84118 9.8982 8.83282 9.91074C8.20941 10.8158 8.33587 11.9659 9.13224 12.628C9.96623 13.322 11.1038 13.2566 11.8971 12.4697C12.093 12.2748 12.2885 12.0793 12.4839 11.8839C12.6328 11.7345 12.8094 11.6519 13.0221 11.6775C13.2708 11.7073 13.4537 11.8405 13.5405 12.0767C13.6366 12.339 13.5713 12.5752 13.3748 12.7728C12.9584 13.1918 12.5377 13.6073 12.1233 14.029C11.8297 14.3279 11.8182 14.7454 12.0867 15.0161C12.3653 15.2967 12.7896 15.2888 13.0937 14.992C13.2458 14.8442 13.3889 14.6874 13.5682 14.5019C13.6753 14.6268 13.7526 14.7329 13.8462 14.8222C14.1351 15.0965 14.5501 15.0965 14.8171 14.829C15.0846 14.5615 15.0857 14.1492 14.8108 13.8571C14.7152 13.7583 14.6013 13.6778 14.4905 13.5838Z" fill="#E19722"/>
<path d="M17.6232 3.74561C16.5023 3.74352 15.5805 4.66582 15.5774 5.79192C15.5743 6.93683 16.4872 7.85391 17.6284 7.85182C18.7561 7.85025 19.6784 6.93213 19.681 5.80916C19.6836 4.67366 18.7603 3.74822 17.6232 3.74561ZM17.6415 6.48587C17.2658 6.49528 16.947 6.18697 16.9433 5.81073C16.9397 5.43136 17.2464 5.11835 17.6227 5.11678C18.0015 5.11522 18.3072 5.42248 18.3067 5.80289C18.3056 6.17391 18.0109 6.47646 17.6415 6.48587Z" fill="#E19722"/>
</svg>
