<svg width="114" height="114" viewBox="0 0 114 114" fill="none" xmlns="http://www.w3.org/2000/svg">
<path d="M25.7312 55.3235C25.9012 67.7039 28.1067 77.8719 33.8546 87.0705C37.0318 92.1522 41.0131 96.4873 46.4533 99.1683C55.5163 103.634 64.0992 102.412 71.9055 96.2415C74.4234 94.252 76.4796 91.6491 78.6023 89.2001C79.8934 87.7115 79.5557 85.699 78.1222 84.6376C76.7162 83.5969 74.8668 83.891 73.6515 85.3797C71.6 87.893 69.2774 90.103 66.4356 91.6974C59.4769 95.6051 52.6469 95.2284 46.1018 90.7669C40.3883 86.8729 36.8917 81.2674 34.4358 74.9336C34.2291 74.3983 34.0246 73.8608 33.8661 73.3117C33.5743 72.2986 34.0361 71.3613 34.9803 70.9707C35.9107 70.587 36.9193 70.9569 37.3833 71.931C37.8933 72.9993 38.2908 74.1227 38.81 75.1863C40.9465 79.5605 43.8021 83.3488 47.9649 85.9999C55.4083 90.7417 63.8901 89.0738 69.8356 82.8089C71.0119 81.5684 70.9544 79.6685 69.8356 78.4095C68.664 77.0931 66.8307 77.0104 65.2501 77.9776C63.5042 79.0436 61.7444 80.2658 59.8192 80.8217C55.5393 82.0577 51.728 80.7 48.4703 77.8076C44.2225 74.0354 42.0194 69.1144 41.004 63.6537C39.4923 55.5165 40.3837 47.7009 44.7969 40.5355C47.0919 36.8069 50.1635 33.8961 54.6295 33.0094C57.8665 32.3661 58.1582 32.5246 57.1037 35.6536C56.7132 36.8092 56.2262 37.3353 54.9626 37.5719C51.535 38.2106 49.0561 40.3701 47.1608 43.1843C43.8113 48.1627 42.7867 53.7314 43.3059 59.6149C43.701 64.0833 45.0634 68.2346 47.8937 71.7909C49.9636 74.3915 52.5366 76.2201 55.9528 76.59C58.9003 76.9093 61.4526 75.9422 63.7178 74.1296C63.9452 73.9458 63.9682 73.507 64.0877 73.1876C63.7293 73.2129 63.2698 73.1026 63.0286 73.2841C60.8576 74.9038 58.5051 75.8158 55.7483 75.4276C53.4119 75.0967 51.4982 73.9641 49.874 72.317C46.8576 69.2546 45.3253 65.4594 44.6636 61.2943C43.7654 55.652 44.4362 50.2188 47.2527 45.1761C48.9643 42.1115 51.2869 39.6946 54.8202 38.7435C55.1878 38.6448 55.5691 38.5919 55.9459 38.5414C56.959 38.4035 57.6161 37.8889 57.8825 36.8666C58.1054 36.0166 58.4224 35.1918 58.6636 34.3464C59.1691 32.5913 58.2593 31.4931 56.4352 31.608C52.0749 31.8791 48.6633 33.9674 45.8743 37.1836C42.3042 41.2982 40.4158 46.1892 39.637 51.5076C38.5573 58.8936 39.4349 66.0084 42.998 72.6707C44.2547 75.0209 45.8789 77.0908 47.9029 78.8368C53.1156 83.3304 59.7916 83.5648 65.2938 79.441C65.5074 79.2802 65.705 79.0964 65.921 78.9402C66.9502 78.2005 68.1356 78.2855 68.9282 79.147C69.7759 80.0659 69.7644 81.2697 68.8156 82.23C62.6013 88.5109 54.1838 89.5402 47.0712 83.9829C43.0279 80.824 40.471 76.6084 38.5986 71.9149C37.8566 70.0541 36.2507 69.2615 34.5898 69.8933C33.1585 70.4377 32.2212 71.9563 32.7036 73.4013C35.3846 81.4098 39.5245 88.4144 47.0712 92.7748C55.0407 97.3787 64.1084 96.106 71.3013 89.5241C72.5098 88.4167 73.5573 87.1325 74.6784 85.9287C75.4549 85.0971 76.5324 84.9317 77.3571 85.5175C78.2623 86.1631 78.5518 87.3117 77.8809 88.2536C73.918 93.827 69.0132 98.208 62.2222 99.9563C54.7857 101.87 48.2084 99.8506 42.3824 95.1319C36.3334 90.2339 32.5819 83.7508 30.0916 76.5004C26.7673 66.824 26.1149 56.9087 27.7345 46.8256C27.9527 45.4656 28.681 44.8177 29.7447 45.0061C30.7463 45.183 31.2173 46.0055 30.9852 47.3287C30.1628 52.0291 29.8986 56.7524 30.319 61.5079C30.3535 61.8893 30.3558 62.2776 30.4385 62.6474C30.7739 64.1843 32.1431 65.1699 33.641 64.9815C35.2032 64.784 36.3564 63.4538 36.2025 61.8456C35.6879 56.502 35.959 51.2227 37.3259 46.0123C37.3971 45.7367 37.1398 45.3737 37.0341 45.0521C36.7653 45.3002 36.338 45.5023 36.2553 45.8033C35.1641 49.7409 34.7529 53.7659 34.8402 57.8437C34.8677 59.1049 34.9504 60.3685 35.0469 61.6274C35.1411 62.8519 34.5094 63.7662 33.4434 63.865C32.4486 63.9569 31.5182 63.2057 31.5044 62.0386C31.4654 58.4846 31.4792 54.9283 31.5802 51.3766C31.6193 50.0097 31.9593 48.652 32.1339 47.2874C32.3728 45.4334 31.4883 44.1033 29.9009 43.8827C28.1756 43.6415 26.8799 44.6133 26.6593 46.481C26.2458 49.973 25.9173 53.4741 25.7243 55.3304L25.7312 55.3235Z" fill="white"/>
<path d="M88.1959 57.8807C88.0053 46.1482 85.7814 35.9112 79.9186 26.6828C78.8963 25.0723 77.7246 23.5446 76.491 22.0881C75.2596 20.6361 73.2218 20.5902 71.8779 21.8216C70.5799 23.0093 70.4329 25.0195 71.6964 26.3611C77.4903 32.518 80.5389 39.9706 81.9173 48.1629C83.5117 57.6441 82.6685 66.9185 79.1122 75.8965C79.0135 76.1446 78.9216 76.3973 78.8044 76.6362C78.2461 77.7734 77.1917 78.2007 76.1601 77.7206C75.1057 77.2267 74.7817 76.202 75.209 75.0097C76.151 72.3884 77.3272 69.8131 77.9222 67.1114C80.2908 56.3461 79.319 45.9667 73.7433 36.2535C72.2845 33.7126 70.4398 31.4589 68.1792 29.5843C60.9196 23.563 51.8887 23.8547 44.976 30.2942C42.5385 32.564 40.6294 35.2243 39.1177 38.1787C38.6629 39.07 38.061 39.6788 36.9858 39.6007C35.7682 39.5134 34.7712 38.2545 35.2605 37.1609C39.0029 28.8055 44.2339 21.9962 53.8116 19.9332C56.7499 19.3014 59.6675 19.6253 62.5392 20.4983C64.9238 21.222 66.9777 20.0251 67.4096 17.7116C67.7358 15.9633 66.7227 14.323 64.8182 13.6315C59.0863 11.5455 53.4095 11.727 47.8247 14.1622C43.0784 16.2321 39.3199 19.5518 36.168 23.5951C33.1056 27.5236 30.8565 31.8977 29.2162 36.5889C29.0852 36.9634 29.2805 37.4527 29.3265 37.8892C29.6412 37.586 30.1099 37.3401 30.2454 36.9726C32.4761 30.8593 35.5546 25.2676 40.2618 20.6913C45.123 15.9656 50.8273 13.0802 57.7446 13.3972C60.0374 13.5029 62.3255 14.1806 64.5631 14.7848C66.0036 15.1731 66.6124 16.5813 66.192 17.8747C65.7486 19.2394 64.4575 19.9102 62.9711 19.4622C54.9947 17.0615 48.1969 19.306 42.2582 24.7691C38.7686 27.9785 36.2805 31.9161 34.376 36.2305C33.6156 37.9558 34.2106 39.688 35.7521 40.437C37.3649 41.2227 38.9937 40.5472 40.039 38.9299C41.546 36.5935 42.952 34.1147 44.845 32.116C52.3344 24.2177 62.5024 24.5187 69.7115 32.6926C74.1017 37.671 76.422 43.605 77.4191 50.0743C78.7217 58.5148 77.8257 66.6956 74.2028 74.5112C73.3895 76.2641 74.0512 78.0445 75.6685 78.7705C77.3295 79.5171 79.1559 78.7705 79.9002 76.9739C82.9718 69.565 84.1503 61.839 83.684 53.8489C83.2452 46.3342 81.4946 39.1642 77.6833 32.6306C76.3072 30.2689 74.5267 28.1324 72.8336 25.9683C71.8251 24.6818 71.6826 23.5308 72.6958 22.6371C73.7112 21.7412 74.8943 21.9319 75.9626 23.2115C81.0328 29.2857 84.0699 36.3362 85.6436 44.0116C88.2855 56.886 87.2678 69.4249 81.8323 81.502C81.6853 81.8282 81.8484 82.2946 81.8645 82.6943C82.1907 82.4623 82.6731 82.3038 82.8224 81.9868C85.4598 76.4019 87.0312 70.5115 87.702 64.3845C87.9731 61.9148 88.0765 59.4268 88.1867 57.8807H88.1959Z" fill="white"/>
<path d="M74.7083 56.9868C74.6187 50.0511 73.0519 43.5726 68.7467 37.9625C67.1661 35.904 65.2478 34.2155 62.8976 33.0737C62.6082 32.9336 62.1694 33.1013 61.7995 33.1265C61.9626 33.4206 62.0499 33.8548 62.3003 33.9857C66.7296 36.3359 69.5002 40.1128 71.2554 44.6546C74.5153 53.0928 74.4165 61.5447 70.9981 69.9346C70.8028 70.4148 70.5202 71.0603 70.1228 71.205C69.5645 71.4095 68.749 71.421 68.2459 71.143C67.5015 70.7341 67.5038 69.9323 67.8209 69.1145C68.6318 67.0193 69.6541 64.954 70.0998 62.7784C71.5954 55.4682 70.6696 48.5417 66.176 42.3481C65.7739 41.7944 65.303 41.2775 64.7998 40.8112C63.4398 39.5499 61.2872 39.6487 60.0558 40.9904C58.829 42.3274 58.9324 44.4869 60.2856 45.7413C65.4707 50.5496 66.8514 58.1056 63.5294 64.3636C62.7989 65.7397 61.6801 67.0124 60.4716 68.0071C58.3903 69.7164 55.6265 69.6337 53.4372 68.0508C50.8297 66.1647 49.5616 63.4377 49.0033 60.396C48.1533 55.7761 48.7552 51.4019 51.7073 47.5539C51.9623 47.2231 52.2495 46.9037 52.5711 46.6372C53.3843 45.9687 54.3607 46.0675 55.0155 46.8463C55.6334 47.5814 55.537 48.6474 54.7903 49.3159C51.3006 52.438 50.2324 56.3022 51.6843 60.5454C52.6492 63.3619 54.6823 65.1768 56.9108 65.2067C59.1737 65.2365 61.2734 63.4079 62.2429 60.5339C62.9735 58.3698 63.001 56.1758 62.4198 53.9773C62.0361 52.523 60.9288 51.8384 59.6997 52.2496C58.5442 52.6356 58.0916 53.8164 58.6292 55.1834C59.1668 56.5503 59.1668 57.8758 58.4178 59.1532C57.6229 60.5109 56.3709 60.5247 55.5324 59.2129C54.4986 57.5933 54.7811 55.3717 56.1435 54.0554C56.3617 53.844 56.4076 53.4558 56.534 53.1502C56.1687 53.1617 55.7093 53.033 55.4497 53.203C53.2029 54.6756 53.2695 59.399 55.5278 60.8716C56.7959 61.6963 58.3397 61.3816 59.2334 60.0331C60.3016 58.4203 60.4165 56.6697 59.7227 54.8778C59.4769 54.2437 59.3092 53.6281 60.0995 53.357C60.9036 53.0813 61.1838 53.7062 61.3332 54.3402C61.9925 57.1384 61.8225 59.8332 60.0972 62.2385C58.3213 64.7127 55.6243 64.676 53.8002 62.2293C51.1973 58.7442 51.9692 52.2244 55.3899 50.2487C56.8372 49.4124 56.9475 47.3494 55.8816 46.1042C54.7765 44.8131 52.957 44.6684 51.7073 45.8722C49.0607 48.4177 47.9281 51.6868 47.6134 55.2339C47.255 59.2634 47.9488 63.1046 50.3312 66.4863C53.9679 71.653 59.9134 71.6484 63.5891 66.507C67.3223 61.2851 67.343 52.6356 63.58 47.4482C62.9826 46.6234 62.2153 45.8998 61.4434 45.2267C60.2098 44.1515 59.9662 42.7754 60.9288 41.7531C61.8937 40.7285 63.2997 40.8272 64.4208 42.0563C67.3981 45.3163 68.834 49.2608 69.3899 53.5591C70.07 58.8201 69.2912 63.8443 66.8399 68.5907C66.0611 70.0977 66.601 71.7082 68.0069 72.4066C69.4589 73.1279 71.09 72.5237 71.8159 70.9248C73.8284 66.5001 74.7198 61.8388 74.7083 56.9868Z" fill="white"/>
<path d="M3.58019 91.5161C3.58019 88.8741 3.58478 86.2345 3.58019 83.5925C3.57559 82.1084 2.91166 81.3135 1.73542 81.3434C0.598231 81.3733 0.0124077 82.1199 0.0124077 83.5787C0.00781305 88.5548 -0.0128631 93.5308 0.0170024 98.5069C0.060652 107.019 6.91593 113.881 15.4437 113.945C20.4197 113.982 25.3958 113.954 30.3718 113.95C31.8329 113.95 32.5819 113.364 32.614 112.234C32.6485 111.053 31.8536 110.384 30.3741 110.382C25.359 110.373 20.3439 110.432 15.3311 110.352C9.49815 110.258 4.71967 106.097 3.72492 100.354C3.58937 99.5682 3.59167 98.7527 3.58478 97.9509C3.5664 95.8075 3.57789 93.6641 3.57789 91.5206L3.58019 91.5161Z" fill="#F7AA31"/>
<path d="M113.924 91.3711C113.924 88.7683 113.929 86.1654 113.924 83.5625C113.919 82.1151 113.322 81.3616 112.185 81.3409C111.013 81.318 110.356 82.1151 110.354 83.6061C110.349 88.3524 110.359 93.0988 110.349 97.8474C110.338 105.24 105.284 110.333 97.8955 110.372C93.225 110.398 88.5545 110.377 83.8863 110.379C83.5417 110.379 83.1902 110.359 82.8571 110.418C81.8554 110.602 81.3063 111.206 81.3224 112.245C81.3362 113.184 82.0001 113.869 83.0018 113.933C83.7645 113.982 84.5318 113.949 85.2968 113.949C89.5837 113.949 93.8705 113.961 98.1597 113.947C107.108 113.917 113.906 107.099 113.926 98.1437C113.931 95.8854 113.926 93.6271 113.926 91.3689L113.924 91.3711Z" fill="#F7AA31"/>
<path d="M3.58015 22.4141C3.58015 20.1949 3.55947 17.9733 3.58245 15.7541C3.65137 8.84598 8.69864 3.7183 15.6113 3.62411C20.5093 3.55748 25.4118 3.6264 30.3098 3.57356C30.9415 3.56667 31.7433 3.34843 32.1453 2.92572C32.4991 2.55125 32.6668 1.60474 32.4325 1.17743C32.143 0.651342 31.3757 0.132145 30.7738 0.081604C29.0646 -0.0631294 27.3324 0.0287628 25.6094 0.0287628C22.3173 0.0287628 19.0252 0.0172768 15.7331 0.0310631C6.84927 0.0724144 0.0307508 6.88863 0.00777732 15.7564C-0.0037094 20.6934 -0.00141206 25.6327 0.00777732 30.572C0.0100747 31.9688 0.816443 32.7728 2.01106 32.6327C2.98743 32.5178 3.56637 31.7919 3.57555 30.5697C3.59393 27.8519 3.58015 25.1342 3.58015 22.4164V22.4141Z" fill="#F7AA31"/>
<path d="M110.352 22.5659C110.352 25.1688 110.347 27.7717 110.354 30.3746C110.358 31.8678 111.011 32.6604 112.183 32.6397C113.32 32.6191 113.919 31.8655 113.922 30.4182C113.926 25.4422 113.947 20.4661 113.917 15.4901C113.864 6.96461 107.032 0.111622 98.4996 0.0404053C93.4845 -0.00094986 88.4694 0.0289192 83.4566 0.0358124C82.092 0.0358124 81.3522 0.644609 81.3155 1.73815C81.2764 2.89141 82.0414 3.5944 83.4244 3.599C88.4395 3.61738 93.4546 3.55994 98.4674 3.63116C104.376 3.71616 109.173 7.69057 110.131 13.5143C110.524 15.9059 110.296 18.3985 110.347 20.8452C110.358 21.4195 110.347 21.9938 110.349 22.5682L110.352 22.5659Z" fill="#F7AA31"/>
</svg>
