<svg width="114" height="114" viewBox="0 0 114 114" fill="none" xmlns="http://www.w3.org/2000/svg">
<path d="M25.7313 55.3235C25.9013 67.7039 28.1067 77.8719 33.8547 87.0705C37.0319 92.1522 41.0132 96.4873 46.4533 99.1683C55.5163 103.634 64.0992 102.412 71.9056 96.2415C74.4235 94.252 76.4796 91.6491 78.6024 89.2001C79.8935 87.7115 79.5558 85.699 78.1222 84.6376C76.7163 83.5969 74.8669 83.891 73.6516 85.3797C71.6001 87.893 69.2774 90.103 66.4356 91.6974C59.477 95.6051 52.647 95.2284 46.1018 90.7669C40.3883 86.8729 36.8918 81.2674 34.4359 74.9336C34.2291 74.3983 34.0247 73.8608 33.8662 73.3117C33.5744 72.2986 34.0362 71.3613 34.9804 70.9707C35.9108 70.587 36.9193 70.9569 37.3834 71.931C37.8934 72.9993 38.2908 74.1227 38.81 75.1863C40.9466 79.5605 43.8022 83.3488 47.965 85.9999C55.4084 90.7417 63.8902 89.0738 69.8357 82.8089C71.0119 81.5684 70.9545 79.6685 69.8357 78.4095C68.6641 77.0931 66.8308 77.0104 65.2502 77.9776C63.5042 79.0436 61.7444 80.2658 59.8193 80.8217C55.5393 82.0577 51.728 80.7 48.4704 77.8076C44.2226 74.0354 42.0194 69.1144 41.004 63.6537C39.4924 55.5165 40.3837 47.7009 44.7969 40.5355C47.092 36.8069 50.1635 33.8961 54.6296 33.0094C57.8665 32.3661 58.1583 32.5246 57.1038 35.6536C56.7133 36.8092 56.2262 37.3353 54.9627 37.5719C51.535 38.2106 49.0562 40.3701 47.1609 43.1843C43.8114 48.1627 42.7868 53.7314 43.306 59.6149C43.7011 64.0833 45.0634 68.2346 47.8938 71.7909C49.9637 74.3915 52.5367 76.2201 55.9528 76.59C58.9003 76.9093 61.4527 75.9422 63.7179 74.1296C63.9453 73.9458 63.9683 73.507 64.0877 73.1876C63.7294 73.2129 63.2699 73.1026 63.0287 73.2841C60.8577 74.9038 58.5052 75.8158 55.7484 75.4276C53.412 75.0967 51.4983 73.9641 49.8741 72.317C46.8576 69.2546 45.3253 65.4594 44.6637 61.2943C43.7654 55.652 44.4362 50.2188 47.2528 45.1761C48.9643 42.1115 51.2869 39.6946 54.8202 38.7435C55.1878 38.6448 55.5692 38.5919 55.9459 38.5414C56.9591 38.4035 57.6161 37.8889 57.8826 36.8666C58.1055 36.0166 58.4225 35.1918 58.6637 34.3464C59.1691 32.5913 58.2594 31.4931 56.4353 31.608C52.0749 31.8791 48.6634 33.9674 45.8744 37.1836C42.3043 41.2982 40.4159 46.1892 39.6371 51.5076C38.5573 58.8936 39.4349 66.0084 42.9981 72.6707C44.2548 75.0209 45.879 77.0908 47.9029 78.8368C53.1156 83.3304 59.7917 83.5648 65.2938 79.441C65.5075 79.2802 65.7051 79.0964 65.921 78.9402C66.9502 78.2005 68.1357 78.2855 68.9282 79.147C69.776 80.0659 69.7645 81.2697 68.8157 82.23C62.6014 88.5109 54.1839 89.5402 47.0713 83.9829C43.028 80.824 40.471 76.6084 38.5987 71.9149C37.8566 70.0541 36.2508 69.2615 34.5898 69.8933C33.1586 70.4377 32.2213 71.9563 32.7037 73.4013C35.3847 81.4098 39.5245 88.4144 47.0713 92.7748C55.0408 97.3787 64.1084 96.106 71.3014 89.5241C72.5098 88.4167 73.5574 87.1325 74.6785 85.9287C75.455 85.0971 76.5325 84.9317 77.3572 85.5175C78.2624 86.1631 78.5518 87.3117 77.881 88.2536C73.9181 93.827 69.0132 98.208 62.2223 99.9563C54.7858 101.87 48.2085 99.8506 42.3824 95.1319C36.3335 90.2339 32.5819 83.7508 30.0916 76.5004C26.7674 66.824 26.1149 56.9087 27.7345 46.8256C27.9528 45.4656 28.6811 44.8177 29.7447 45.0061C30.7464 45.183 31.2173 46.0055 30.9853 47.3287C30.1628 52.0291 29.8986 56.7524 30.3191 61.5079C30.3535 61.8893 30.3558 62.2776 30.4385 62.6474C30.7739 64.1843 32.1431 65.1699 33.641 64.9815C35.2032 64.784 36.3565 63.4538 36.2026 61.8456C35.688 56.502 35.959 51.2227 37.326 46.0123C37.3972 45.7367 37.1399 45.3737 37.0342 45.0521C36.7654 45.3002 36.3381 45.5023 36.2554 45.8033C35.1642 49.7409 34.7529 53.7659 34.8402 57.8437C34.8678 59.1049 34.9505 60.3685 35.047 61.6274C35.1412 62.8519 34.5094 63.7662 33.4434 63.865C32.4487 63.9569 31.5183 63.2057 31.5045 62.0386C31.4654 58.4846 31.4792 54.9283 31.5803 51.3766C31.6194 50.0097 31.9594 48.652 32.134 47.2874C32.3729 45.4334 31.4884 44.1033 29.9009 43.8827C28.1756 43.6415 26.8799 44.6133 26.6594 46.481C26.2459 49.973 25.9173 53.4741 25.7244 55.3304L25.7313 55.3235Z" fill="#A3A3A3"/>
<path d="M88.1959 57.8807C88.0052 46.1482 85.7814 35.9112 79.9185 26.6828C78.8962 25.0723 77.7246 23.5446 76.4909 22.0881C75.2595 20.6361 73.2218 20.5902 71.8778 21.8216C70.5798 23.0093 70.4328 25.0195 71.6963 26.3611C77.4902 32.518 80.5388 39.9706 81.9172 48.1629C83.5116 57.6441 82.6685 66.9185 79.1122 75.8965C79.0134 76.1446 78.9215 76.3973 78.8043 76.6362C78.2461 77.7734 77.1916 78.2007 76.1601 77.7206C75.1056 77.2267 74.7817 76.202 75.209 75.0097C76.1509 72.3884 77.3271 69.8131 77.9221 67.1114C80.2907 56.3461 79.3189 45.9667 73.7433 36.2535C72.2845 33.7126 70.4397 31.4589 68.1791 29.5843C60.9195 23.563 51.8886 23.8547 44.9759 30.2942C42.5384 32.564 40.6293 35.2243 39.1177 38.1787C38.6628 39.07 38.0609 39.6788 36.9857 39.6007C35.7682 39.5134 34.7711 38.2545 35.2604 37.1609C39.0028 28.8055 44.2339 21.9962 53.8115 19.9332C56.7498 19.3014 59.6674 19.6253 62.5391 20.4983C64.9238 21.222 66.9776 20.0251 67.4095 17.7116C67.7357 15.9633 66.7226 14.323 64.8181 13.6315C59.0862 11.5455 53.4095 11.727 47.8246 14.1622C43.0783 16.2321 39.3199 19.5518 36.1679 23.5951C33.1055 27.5236 30.8564 31.8977 29.2161 36.5889C29.0852 36.9634 29.2805 37.4527 29.3264 37.8892C29.6411 37.586 30.1098 37.3401 30.2453 36.9726C32.4761 30.8593 35.5545 25.2676 40.2618 20.6913C45.1229 15.9656 50.8273 13.0802 57.7446 13.3972C60.0373 13.5029 62.3255 14.1806 64.5631 14.7848C66.0035 15.1731 66.6123 16.5813 66.1919 17.8747C65.7485 19.2394 64.4574 19.9102 62.971 19.4622C54.9946 17.0615 48.1968 19.306 42.2582 24.7691C38.7685 27.9785 36.2805 31.9161 34.376 36.2305C33.6155 37.9558 34.2106 39.688 35.7521 40.437C37.3648 41.2227 38.9936 40.5472 40.0389 38.9299C41.546 36.5935 42.952 34.1147 44.845 32.116C52.3343 24.2177 62.5024 24.5187 69.7114 32.6926C74.1017 37.671 76.422 43.605 77.419 50.0743C78.7216 58.5148 77.8257 66.6956 74.2027 74.5112C73.3895 76.2641 74.0511 78.0445 75.6685 78.7705C77.3294 79.5171 79.1558 78.7705 79.9002 76.9739C82.9717 69.565 84.1503 61.839 83.6839 53.8489C83.2451 46.3342 81.4945 39.1642 77.6832 32.6306C76.3071 30.2689 74.5267 28.1324 72.8335 25.9683C71.825 24.6818 71.6826 23.5308 72.6957 22.6371C73.7111 21.7412 74.8942 21.9319 75.9625 23.2115C81.0328 29.2857 84.0698 36.3362 85.6435 44.0116C88.2855 56.886 87.2677 69.4249 81.8322 81.502C81.6852 81.8282 81.8483 82.2946 81.8644 82.6943C82.1906 82.4623 82.6731 82.3038 82.8224 81.9868C85.4597 76.4019 87.0311 70.5115 87.7019 64.3845C87.973 61.9148 88.0764 59.4268 88.1867 57.8807H88.1959Z" fill="#A3A3A3"/>
<path d="M74.7084 56.9868C74.6188 50.0511 73.052 43.5726 68.7468 37.9625C67.1662 35.904 65.248 34.2155 62.8978 33.0737C62.6083 32.9336 62.1695 33.1013 61.7996 33.1265C61.9627 33.4206 62.0501 33.8548 62.3005 33.9857C66.7297 36.3359 69.5003 40.1128 71.2555 44.6546C74.5154 53.0928 74.4167 61.5447 70.9982 69.9346C70.8029 70.4148 70.5204 71.0603 70.1229 71.205C69.5647 71.4095 68.7491 71.421 68.246 71.143C67.5016 70.7341 67.504 69.9323 67.821 69.1145C68.6319 67.0193 69.6543 64.954 70.0999 62.7784C71.5955 55.4682 70.6697 48.5417 66.1761 42.3481C65.774 41.7944 65.3031 41.2775 64.8 40.8112C63.4399 39.5499 61.2873 39.6487 60.056 40.9904C58.8292 42.3274 58.9326 44.4869 60.2857 45.7413C65.4708 50.5496 66.8515 58.1056 63.5295 64.3636C62.799 65.7397 61.6802 67.0124 60.4718 68.0071C58.3904 69.7164 55.6267 69.6337 53.4373 68.0508C50.8298 66.1647 49.5617 63.4377 49.0034 60.396C48.1534 55.7761 48.7553 51.4019 51.7074 47.5539C51.9624 47.2231 52.2496 46.9037 52.5712 46.6372C53.3845 45.9687 54.3608 46.0675 55.0156 46.8463C55.6336 47.5814 55.5371 48.6474 54.7904 49.3159C51.3008 52.438 50.2325 56.3022 51.6844 60.5454C52.6493 63.3619 54.6825 65.1768 56.9109 65.2067C59.1738 65.2365 61.2736 63.4079 62.243 60.5339C62.9736 58.3698 63.0012 56.1758 62.4199 53.9773C62.0363 52.523 60.9289 51.8384 59.6999 52.2496C58.5443 52.6356 58.0917 53.8164 58.6293 55.1834C59.1669 56.5503 59.1669 57.8758 58.4179 59.1532C57.6231 60.5109 56.371 60.5247 55.5325 59.2129C54.4987 57.5933 54.7812 55.3717 56.1436 54.0554C56.3618 53.844 56.4078 53.4558 56.5341 53.1502C56.1688 53.1617 55.7094 53.033 55.4498 53.203C53.203 54.6756 53.2696 59.399 55.5279 60.8716C56.796 61.6963 58.3398 61.3816 59.2335 60.0331C60.3018 58.4203 60.4166 56.6697 59.7228 54.8778C59.477 54.2437 59.3093 53.6281 60.0996 53.357C60.9037 53.0813 61.1839 53.7062 61.3333 54.3402C61.9926 57.1384 61.8226 59.8332 60.0973 62.2385C58.3215 64.7127 55.6244 64.676 53.8003 62.2293C51.1974 58.7442 51.9693 52.2244 55.39 50.2487C56.8374 49.4124 56.9476 47.3494 55.8817 46.1042C54.7767 44.8131 52.9572 44.6684 51.7074 45.8722C49.0609 48.4177 47.9283 51.6868 47.6135 55.2339C47.2551 59.2634 47.9489 63.1046 50.3313 66.4863C53.968 71.653 59.9135 71.6484 63.5893 66.507C67.3225 61.2851 67.3431 52.6356 63.5801 47.4482C62.9828 46.6234 62.2155 45.8998 61.4436 45.2267C60.2099 44.1515 59.9664 42.7754 60.9289 41.7531C61.8938 40.7285 63.2998 40.8272 64.4209 42.0563C67.3983 45.3163 68.8341 49.2608 69.3901 53.5591C70.0701 58.8201 69.2913 63.8443 66.84 68.5907C66.0612 70.0977 66.6011 71.7082 68.0071 72.4066C69.459 73.1279 71.0901 72.5237 71.8161 70.9248C73.8285 66.5001 74.7199 61.8388 74.7084 56.9868Z" fill="#A3A3A3"/>
<path d="M3.58025 91.5161C3.58025 88.8741 3.58484 86.2345 3.58025 83.5925C3.57565 82.1084 2.91172 81.3135 1.73548 81.3434C0.598292 81.3733 0.0124688 82.1199 0.0124688 83.5787C0.00787408 88.5548 -0.012802 93.5308 0.0170635 98.5069C0.060713 107.019 6.91599 113.881 15.4437 113.945C20.4198 113.982 25.3958 113.954 30.3719 113.95C31.833 113.95 32.5819 113.364 32.6141 112.234C32.6486 111.053 31.8537 110.384 30.3742 110.382C25.3591 110.373 20.344 110.432 15.3312 110.352C9.49821 110.258 4.71973 106.097 3.72498 100.354C3.58944 99.5682 3.59173 98.7527 3.58484 97.9509C3.56646 95.8075 3.57795 93.6641 3.57795 91.5206L3.58025 91.5161Z" fill="#DADADA"/>
<path d="M113.924 91.3711C113.924 88.7683 113.929 86.1654 113.924 83.5625C113.919 82.1151 113.322 81.3616 112.185 81.3409C111.013 81.318 110.356 82.1151 110.354 83.6061C110.349 88.3524 110.359 93.0988 110.349 97.8474C110.338 105.24 105.284 110.333 97.8954 110.372C93.2249 110.398 88.5544 110.377 83.8862 110.379C83.5416 110.379 83.1901 110.359 82.857 110.418C81.8553 110.602 81.3063 111.206 81.3224 112.245C81.3361 113.184 82.0001 113.869 83.0017 113.933C83.7644 113.982 84.5318 113.949 85.2968 113.949C89.5836 113.949 93.8705 113.961 98.1596 113.947C107.108 113.917 113.906 107.099 113.926 98.1437C113.931 95.8854 113.926 93.6271 113.926 91.3689L113.924 91.3711Z" fill="#DADADA"/>
<path d="M3.58015 22.4141C3.58015 20.1949 3.55947 17.9733 3.58245 15.7541C3.65137 8.84598 8.69864 3.7183 15.6113 3.62411C20.5093 3.55748 25.4118 3.6264 30.3098 3.57356C30.9415 3.56667 31.7433 3.34843 32.1453 2.92572C32.4991 2.55125 32.6668 1.60474 32.4325 1.17743C32.143 0.651342 31.3757 0.132145 30.7738 0.081604C29.0646 -0.0631294 27.3324 0.0287628 25.6094 0.0287628C22.3173 0.0287628 19.0252 0.0172768 15.7331 0.0310631C6.84927 0.0724144 0.0307508 6.88863 0.00777732 15.7564C-0.0037094 20.6934 -0.00141206 25.6327 0.00777732 30.572C0.0100747 31.9688 0.816443 32.7728 2.01106 32.6327C2.98743 32.5178 3.56637 31.7919 3.57555 30.5697C3.59393 27.8519 3.58015 25.1342 3.58015 22.4164V22.4141Z" fill="#DADADA"/>
<path d="M110.352 22.5659C110.352 25.1688 110.347 27.7717 110.354 30.3746C110.358 31.8678 111.011 32.6604 112.183 32.6397C113.32 32.6191 113.919 31.8655 113.922 30.4182C113.926 25.4422 113.947 20.4661 113.917 15.4901C113.864 6.96461 107.032 0.111622 98.4995 0.0404053C93.4844 -0.00094986 88.4693 0.0289192 83.4565 0.0358124C82.0919 0.0358124 81.3521 0.644609 81.3154 1.73815C81.2763 2.89141 82.0413 3.5944 83.4244 3.599C88.4395 3.61738 93.4546 3.55994 98.4674 3.63116C104.376 3.71616 109.173 7.69057 110.131 13.5143C110.524 15.9059 110.296 18.3985 110.347 20.8452C110.358 21.4195 110.347 21.9938 110.349 22.5682L110.352 22.5659Z" fill="#DADADA"/>
</svg>
