<svg width="22" height="18" viewBox="0 0 22 18" fill="none" xmlns="http://www.w3.org/2000/svg">
<path d="M6.0761 5.64843C6.73586 4.7676 7.38568 3.89918 8.03599 3.03126C8.70022 2.14397 9.36495 1.25717 10.0297 0.369881C10.3968 -0.120466 10.9811 -0.123943 11.3462 0.363422C12.6379 2.08734 13.9291 3.81174 15.2203 5.53566C15.2436 5.56646 15.268 5.59676 15.3077 5.64694C15.737 5.28229 16.1622 4.9221 16.586 4.55944C17.6964 3.61054 18.8062 2.66114 19.9151 1.71076C20.2042 1.46335 20.5142 1.4236 20.8198 1.59947C21.094 1.75746 21.253 2.11068 21.1854 2.44851C20.9032 3.86292 20.6161 5.27583 20.3319 6.68974C19.7447 9.60896 19.159 12.5292 18.5688 15.4479C18.4992 15.7907 18.4535 16.1395 18.3382 16.4728C18.0238 17.3815 17.2045 17.9935 16.2457 17.995C12.541 18.001 8.83635 18.0025 5.13167 17.9945C3.98604 17.992 3.14942 17.1937 2.9035 15.9542C2.35155 13.1711 1.78669 10.3904 1.22728 7.60833C0.881507 5.88889 0.535731 4.16944 0.190948 2.45C0.115931 2.07641 0.229202 1.79819 0.521324 1.62233C0.83133 1.43602 1.18853 1.47577 1.49307 1.73609C2.97753 3.00444 4.46148 4.27377 5.94594 5.54261C5.98121 5.57292 6.01847 5.60173 6.0761 5.64843ZM2.12054 4.36071C2.25617 5.03388 2.3908 5.69712 2.52295 6.36085C3.15141 9.51904 3.77887 12.6772 4.40783 15.8354C4.49129 16.2552 4.78391 16.4962 5.21812 16.4967C8.86814 16.4986 12.5182 16.4986 16.1682 16.4967C16.589 16.4967 16.8806 16.2557 16.9671 15.8493C17.0366 15.5214 17.0967 15.1916 17.1623 14.8627C17.7033 12.1486 18.2453 9.43458 18.7864 6.72004C18.9488 5.90578 19.1093 5.09102 19.2777 4.239C19.1808 4.31799 19.1142 4.37015 19.0497 4.4248C17.9388 5.3732 16.8279 6.3216 15.7181 7.271C15.3311 7.60187 14.8576 7.55119 14.5576 7.14878C13.7314 6.0414 12.9032 4.93601 12.0755 3.82963C11.619 3.21906 11.1619 2.60848 10.7098 2.00487C10.6358 2.01878 10.6219 2.06846 10.595 2.10423C9.34557 3.772 8.09611 5.44027 6.84664 7.10804C6.49789 7.57355 6.06467 7.61926 5.62897 7.24616C4.53749 6.31117 3.44403 5.37817 2.35056 4.44567C2.28896 4.39201 2.2353 4.30855 2.12054 4.36071Z" fill="#E19722"/>
<path d="M10.6913 12.0268C11.217 11.1604 11.7222 10.3287 12.2255 9.49559C12.2945 9.38133 12.3686 9.27203 12.4714 9.18559C12.7625 8.94116 13.1153 8.93371 13.3895 9.16522C13.6896 9.41859 13.7745 9.78921 13.5847 10.1072C12.8306 11.3715 12.0754 12.6349 11.3109 13.8928C11.0202 14.3712 10.3605 14.3717 10.0698 13.8938C9.30477 12.6359 8.54913 11.373 7.79498 10.1087C7.57042 9.73257 7.68667 9.32469 8.06226 9.10361C8.43735 8.88303 8.83827 8.98041 9.07028 9.35997C9.56658 10.1712 10.0564 10.986 10.5498 11.7988C10.5895 11.8639 10.6302 11.9284 10.6913 12.0268Z" fill="#E19722"/>
</svg>
