<svg width="23" height="25" viewBox="0 0 23 25" fill="none" xmlns="http://www.w3.org/2000/svg">
<path d="M13.9026 22.6952C13.7184 23.3073 13.3725 23.79 12.8009 24.0728C11.9771 24.4801 11.1722 24.4133 10.4546 23.8417C9.73803 23.2712 9.49236 22.4927 9.72187 21.615C9.95138 20.7379 10.5489 20.1986 11.4513 20.0413C12.497 19.8587 13.4894 20.4518 13.8369 21.4556C13.8821 21.5859 13.9393 21.621 14.0707 21.6204C15.104 21.615 16.1368 21.6177 17.1702 21.6172C18.0446 21.6172 18.6372 21.0509 18.6674 20.183C18.6755 19.9513 18.6685 19.7191 18.6685 19.4589C18.3511 19.4589 18.0397 19.4595 17.7283 19.4589C17.0129 19.4578 16.5129 18.9767 16.4994 18.2602C16.4892 17.7063 16.4973 17.152 16.4973 16.5981C16.4973 15.123 16.4967 13.6484 16.4973 12.1733C16.4978 11.314 16.9671 10.8442 17.8253 10.8431C18.0861 10.8426 18.3474 10.8431 18.6237 10.8431C18.6286 10.8033 18.6345 10.7763 18.6345 10.7494C18.621 9.7543 18.6674 8.75922 18.6065 7.76467C18.5171 6.2998 18.023 4.98254 17.1077 3.84145C15.5534 1.90354 13.5142 0.990351 11.0354 1.10026C7.84538 1.24141 5.0196 3.73747 4.4496 6.87842C4.33538 7.50823 4.31545 8.14127 4.32083 8.77754C4.32676 9.45745 4.32191 10.1374 4.32191 10.8426C4.63331 10.8426 4.93017 10.8421 5.22648 10.8426C5.99529 10.8442 6.48502 11.3323 6.48502 12.1027C6.48556 14.1468 6.47424 16.1908 6.48987 18.2343C6.49526 18.9616 5.88538 19.4805 5.26474 19.4659C4.2244 19.4417 3.18352 19.4525 2.14264 19.4611C0.970847 19.4708 -0.00322452 18.4902 8.0225e-06 17.3351C0.00377932 15.8827 -0.00160811 14.4302 0.00162443 12.9777C0.00431821 11.808 0.942832 10.8636 2.11732 10.8442C2.4826 10.8383 2.84841 10.8431 3.20938 10.8431C3.25571 10.751 3.23309 10.668 3.23524 10.5883C3.25787 9.53341 3.18244 8.47691 3.27834 7.42364C3.42704 5.79283 4.02937 4.34034 5.05731 3.06995C6.24204 1.60561 7.74894 0.615377 9.59203 0.222624C12.7535 -0.451361 15.4709 0.404724 17.6518 2.79465C19.0779 4.35758 19.7233 6.24808 19.7201 8.36162C19.719 9.11049 19.7201 9.85882 19.7201 10.6077C19.7201 10.6804 19.7201 10.7532 19.7201 10.8431C20.0913 10.8431 20.4415 10.8426 20.7917 10.8431C22.0562 10.8464 22.9979 11.7881 22.999 13.0536C23.0006 14.4463 23.0001 15.8385 22.999 17.2312C22.9979 18.383 22.2636 19.2547 21.129 19.4492C21.0487 19.4632 20.9646 19.4584 20.8827 19.4589C20.5175 19.46 20.1522 19.4595 19.7751 19.4595C19.7384 19.829 19.781 20.1868 19.7352 20.5429C19.5709 21.8176 18.4228 22.7173 17.2968 22.6995C16.1751 22.6812 15.0518 22.6952 13.9026 22.6952ZM17.5791 15.144C17.5791 16.1396 17.5796 17.1347 17.5786 18.1303C17.5786 18.265 17.5748 18.3836 17.7693 18.383C18.8021 18.3782 19.8349 18.3916 20.8677 18.3755C21.4312 18.3669 21.8757 17.9553 21.8859 17.3901C21.9112 15.9166 21.9177 14.4415 21.8935 12.968C21.8827 12.3161 21.4167 11.9325 20.7567 11.932C19.7918 11.9314 18.8263 11.9314 17.8614 11.9309C17.5834 11.9309 17.5791 11.9341 17.5791 12.2245C17.5791 13.198 17.5791 14.171 17.5791 15.144ZM5.39565 15.1634C5.39565 14.1608 5.39296 13.1582 5.39835 12.1561C5.39942 12.0009 5.37195 11.9276 5.19308 11.9287C4.18345 11.9357 3.17382 11.9244 2.16473 11.9346C1.53008 11.9411 1.08668 12.4077 1.08722 13.0359C1.08776 14.435 1.08722 15.8336 1.08776 17.2328C1.08776 17.9267 1.5387 18.3787 2.23692 18.3803C3.20938 18.3825 4.18237 18.3749 5.15483 18.3852C5.36063 18.3873 5.40266 18.3157 5.40104 18.1255C5.39188 17.1385 5.39619 16.151 5.39565 15.1634ZM12.8574 22.1694C12.8574 21.5752 12.3979 21.1 11.809 21.0849C11.2444 21.0703 10.7444 21.5735 10.7434 22.1586C10.7423 22.7556 11.2088 23.2308 11.7982 23.2329C12.3882 23.2351 12.8574 22.7642 12.8574 22.1694Z" fill="#E19722"/>
<path d="M11.5357 6.60831C12.4327 6.59915 13.1838 6.79148 13.8389 7.29253C14.9342 8.13083 15.2348 9.79559 14.0108 10.9302C13.6433 11.2707 13.2797 11.6155 12.902 11.9436C12.5049 12.289 12.256 12.7011 12.1709 13.2296C12.0745 13.8249 11.6074 14.0906 11.0718 13.8853C10.81 13.7851 10.6451 13.5895 10.608 13.3083C10.5083 12.5605 10.7238 11.9113 11.2362 11.3596C11.6494 10.9146 12.1407 10.5536 12.5637 10.1199C12.7797 9.89795 12.9596 9.65551 12.9909 9.32957C13.0631 8.57315 12.4591 8.06618 11.8509 8.00153C11.0013 7.91156 10.5503 8.15831 10.1834 8.92981C10.0751 9.1577 10.0019 9.40176 9.89897 9.63235C9.73681 9.99709 9.45396 10.1754 9.09353 10.156C8.73526 10.1366 8.40769 9.88556 8.3021 9.52944C8.22775 9.27785 8.27462 9.02625 8.35112 8.78273C8.71317 7.63572 9.54339 7.00429 10.6662 6.70582C10.9765 6.62339 11.2965 6.59161 11.5357 6.60831Z" fill="#E19722"/>
<path d="M10.4649 15.5235C10.4611 14.9578 10.8792 14.5317 11.4459 14.5231C11.9906 14.515 12.4238 14.9411 12.4319 15.4934C12.4405 16.0628 12.0203 16.4895 11.4513 16.4884C10.8862 16.4874 10.4686 16.079 10.4649 15.5235Z" fill="#E19722"/>
</svg>
