<svg width="19" height="24" viewBox="0 0 19 24" fill="none" xmlns="http://www.w3.org/2000/svg">
<path d="M9.55007 13.0607C13.1053 13.0607 15.958 10.2081 15.958 6.65481H14.458C14.458 9.37938 12.2772 11.5607 9.55007 11.5607V13.0607ZM3.14212 6.65481C3.14212 10.2082 5.99602 13.0607 9.55007 13.0607V11.5607C6.82393 11.5607 4.64212 9.37929 4.64212 6.65481H3.14212ZM9.55007 0.25C5.9962 0.25 3.14212 3.10121 3.14212 6.65481H4.64212C4.64212 3.93052 6.82374 1.75 9.55007 1.75V0.25ZM15.958 6.65481C15.958 3.1013 13.1051 0.25 9.55007 0.25V1.75C12.2774 1.75 14.458 3.93043 14.458 6.65481H15.958ZM0.25 18.7145C0.25 19.6285 0.564673 20.4015 1.1311 21.0196C1.68204 21.6208 2.43934 22.042 3.2862 22.3419C4.96991 22.9381 7.21385 23.125 9.55 23.125V21.625C7.25031 21.625 5.21925 21.4352 3.78693 20.9279C3.07576 20.6761 2.56478 20.3638 2.23694 20.0061C1.9246 19.6653 1.75 19.2541 1.75 18.7145H0.25ZM9.55 14.3297C7.22749 14.3297 4.98438 14.5097 3.2985 15.0985C2.45067 15.3946 1.69058 15.8119 1.13691 16.4104C0.567263 17.0262 0.25 17.7989 0.25 18.7145H1.75C1.75 18.1761 1.92508 17.7673 2.23805 17.429C2.567 17.0734 3.0798 16.7637 3.79307 16.5146C5.22938 16.013 7.26126 15.8297 9.55 15.8297V14.3297ZM18.85 18.7402C18.85 17.8263 18.5354 17.0532 17.9691 16.4351C17.4182 15.8339 16.661 15.4127 15.8142 15.1128C14.1306 14.5165 11.8867 14.3297 9.55 14.3297V15.8297C11.8502 15.8297 13.8813 16.0195 15.3135 16.5267C16.0245 16.7786 16.5354 17.0908 16.8632 17.4485C17.1754 17.7893 17.35 18.2005 17.35 18.7402H18.85ZM9.55 23.125C11.8725 23.125 14.1156 22.945 15.8015 22.3562C16.6493 22.0601 17.4094 21.6428 17.9631 21.0442C18.5327 20.4284 18.85 19.6558 18.85 18.7402H17.35C17.35 19.2786 17.1749 19.6873 16.8619 20.0257C16.533 20.3813 16.0202 20.691 15.3069 20.9401C13.8706 21.4417 11.8387 21.625 9.55 21.625V23.125Z" fill="#E19722"/>
</svg>
