<svg width="23" height="24" viewBox="0 0 23 24" fill="none" xmlns="http://www.w3.org/2000/svg">
<path d="M20.9266 5.27326H15.6509C15.7628 5.18006 15.8715 5.08106 15.9762 4.97639C16.6282 4.32434 17.0694 3.53035 17.2185 2.74049C17.3806 1.88124 17.1849 1.12305 16.6674 0.605658C16.2714 0.209397 15.7292 0 15.0995 0C14.1565 0 13.1088 0.484793 12.2967 1.29685C11.9699 1.62378 11.7036 1.97744 11.4979 2.34057C11.2896 1.9701 11.0225 1.61624 10.7031 1.29685C9.89099 0.48486 8.84321 0 7.90029 0C7.27063 0 6.72844 0.20953 6.33224 0.605591C5.30072 1.63731 5.60445 3.55722 7.02356 4.97633C7.12836 5.08113 7.23749 5.17986 7.34949 5.27319H2.0733C0.930053 5.27319 0 6.20324 0 7.34649V7.88649C0 9.02967 0.930053 9.95979 2.0733 9.95979H2.37823V21.4432C2.37823 22.5864 3.30829 23.5165 4.45154 23.5165H18.5482C19.6915 23.5165 20.6216 22.5865 20.6216 21.4432V9.95972H20.9267C22.0699 9.95972 23 9.02967 23 7.88642V7.34643C22.9999 6.20331 22.0699 5.27326 20.9266 5.27326ZM13.0039 2.00397C13.6325 1.37531 14.416 0.999986 15.0996 0.999986C15.3497 0.999986 15.702 1.05425 15.9605 1.31271C16.237 1.58924 16.3348 2.03044 16.2359 2.55503C16.1238 3.14915 15.7804 3.75788 15.2691 4.26921C14.6406 4.89786 13.8573 5.27326 13.1737 5.27326C12.9234 5.27326 12.5711 5.21899 12.3126 4.96053C11.6986 4.34667 12.0152 2.99269 13.0039 2.00397ZM7.73075 4.26921C6.7421 3.28069 6.42557 1.92664 7.03936 1.31271C7.29783 1.05425 7.65016 0.999986 7.90029 0.999986C8.58388 0.999986 9.36733 1.37538 9.99606 2.00397C10.5072 2.51516 10.8506 3.12389 10.9627 3.71815C11.0616 4.24274 10.9639 4.68387 10.6872 4.9606C10.4289 5.21892 10.0764 5.27319 9.82626 5.27319C9.14274 5.27326 8.35941 4.898 7.73075 4.26921ZM9.38686 22.5165H4.45147C3.85968 22.5165 3.37815 22.0349 3.37815 21.4432V9.95972H9.3868V22.5165H9.38686ZM9.38686 8.95974H2.0733C1.48151 8.95974 0.999986 8.47821 0.999986 7.88642V7.34643C0.999986 6.75464 1.48151 6.27311 2.0733 6.27311H9.38686V8.95974ZM12.6131 22.5165H10.3868V6.27324H12.6131V22.5165ZM19.6216 21.4432C19.6216 22.0349 19.1401 22.5165 18.5481 22.5165H13.6131V9.95972H19.6216V21.4432ZM21.9999 7.88649C21.9999 8.47828 21.5184 8.9598 20.9266 8.9598H13.6131V6.27324H20.9266C21.5184 6.27324 21.9999 6.75477 21.9999 7.34656V7.88649Z" fill="#E19722"/>
</svg>
