<svg width="20" height="21" viewBox="0 0 20 21" fill="none" xmlns="http://www.w3.org/2000/svg">
<path d="M18.9415 12.8492L19.5818 12.4586L19.5766 12.4501L19.5711 12.4416L18.9415 12.8492ZM18.1486 12.0924L18.5004 11.4301L18.4894 11.4242L18.4782 11.4187L18.1486 12.0924ZM18.9219 14.8128L19.5661 15.1969L19.5729 15.1855L19.5793 15.1738L18.9219 14.8128ZM18.2367 15.9623L17.5924 15.5783L17.5909 15.5808L18.2367 15.9623ZM15.4663 16.6712L15.0621 17.3029L15.0685 17.307L15.075 17.311L15.4663 16.6712ZM12.7938 18.1942L12.0442 18.171L12.0438 18.1826V18.1942H12.7938ZM7.39994 18.1942H8.14994V18.1865L8.14978 18.1787L7.39994 18.1942ZM4.73725 16.6712L5.12856 17.311L5.14079 17.3035L5.15273 17.2956L4.73725 16.6712ZM1.9571 15.9623L1.31048 16.3423L1.31138 16.3438L1.9571 15.9623ZM1.28164 14.8128L0.633348 15.19L0.635017 15.1928L1.28164 14.8128ZM1.26206 12.8492L1.90237 13.2397L1.91187 13.2241L1.9206 13.2081L1.26206 12.8492ZM2.0452 12.0924L1.71559 11.4187L1.70031 11.4262L1.68537 11.4344L2.0452 12.0924ZM2.66193 11.4794L3.29264 11.8852L3.29987 11.874L3.3067 11.8625L2.66193 11.4794ZM2.02562 9.08463L2.40541 8.43776L2.39376 8.4312L2.02562 9.08463ZM1.30122 6.37379L1.94763 6.75414L1.94992 6.75021L1.30122 6.37379ZM1.9571 5.24347L1.31356 4.85817L1.3084 4.86706L1.9571 5.24347ZM4.71768 4.51547L4.34749 5.16775L4.35439 5.17167L4.36138 5.17544L4.71768 4.51547ZM7.17478 3.85453L7.81416 4.24657L7.81837 4.2397L7.82244 4.23274L7.17478 3.85453ZM7.39994 3.01158L6.65087 3.05084L6.65167 3.06256L7.39994 3.01158ZM7.67404 1.99621L8.30366 2.40373L8.30912 2.3953L8.31435 2.38672L7.67404 1.99621ZM9.40674 1V0.25H9.39669L9.38664 0.250269L9.40674 1ZM12.5295 1.99621L11.8892 2.38672L11.8901 2.38826L12.5295 1.99621ZM12.7938 3.01158L12.0461 2.9528L12.0456 2.9606L12.7938 3.01158ZM13.019 3.85453L12.3713 4.23274L12.3754 4.2397L12.3796 4.24657L13.019 3.85453ZM15.4859 4.51547L15.839 5.17713L15.849 5.17178L15.8589 5.16614L15.4859 4.51547ZM18.2367 5.24347L18.8854 4.86705L18.8831 4.86313L18.2367 5.24347ZM18.8925 6.37379L18.2438 6.75024L18.2491 6.75906L18.8925 6.37379ZM18.1681 9.08463L17.8028 8.42963L17.7956 8.43366L17.7884 8.43786L18.1681 9.08463ZM17.5416 11.4794L18.1832 11.0909L18.183 11.0906L17.5416 11.4794ZM19.5711 12.4416C19.3379 12.0813 18.987 11.6886 18.5004 11.4301L17.7967 12.7548C17.9954 12.8603 18.1731 13.0423 18.3119 13.2567L19.5711 12.4416ZM19.5793 15.1738C20.0375 14.3395 20.1076 13.3208 19.5818 12.4586L18.3012 13.2397C18.4998 13.5653 18.5112 14.0026 18.2645 14.4519L19.5793 15.1738ZM18.8809 16.3464L19.5661 15.1969L18.2777 14.4288L17.5925 15.5783L18.8809 16.3464ZM16.504 17.7085C17.4661 17.7085 18.3862 17.1837 18.8824 16.3438L17.5909 15.5808C17.3627 15.9671 16.9319 16.2085 16.504 16.2085V17.7085ZM15.075 17.311C15.5154 17.5804 16.0347 17.7085 16.504 17.7085V16.2085C16.288 16.2085 16.0437 16.1451 15.8576 16.0313L15.075 17.311ZM14.6048 17.2008C14.8296 17.2008 14.9673 17.2423 15.0621 17.3029L15.8705 16.0394C15.4562 15.7743 15.0066 15.7008 14.6048 15.7008V17.2008ZM13.5435 18.2174C13.5603 17.6755 14.0395 17.2008 14.6048 17.2008V15.7008C13.2319 15.7008 12.0861 16.8163 12.0442 18.171L13.5435 18.2174ZM10.7674 20.9079C12.2823 20.9079 13.5438 19.7347 13.5438 18.1942H12.0438C12.0438 18.8569 11.5041 19.4079 10.7674 19.4079V20.9079ZM9.43611 20.9079H10.7674V19.4079H9.43611V20.9079ZM6.64994 18.1942C6.64994 19.737 7.91383 20.9079 9.43611 20.9079V19.4079C8.68727 19.4079 8.14994 18.8546 8.14994 18.1942H6.64994ZM5.59871 17.2008C6.16569 17.2008 6.63907 17.6755 6.6501 18.2097L8.14978 18.1787C8.12165 16.8163 6.97 15.7008 5.59871 15.7008V17.2008ZM5.15273 17.2956C5.22911 17.2447 5.35769 17.2008 5.59871 17.2008V15.7008C5.19364 15.7008 4.73486 15.7719 4.32178 16.0468L5.15273 17.2956ZM3.69959 17.7085C4.15722 17.7085 4.68665 17.5812 5.12856 17.311L4.34595 16.0313C4.16135 16.1442 3.90763 16.2085 3.69959 16.2085V17.7085ZM1.31138 16.3438C1.8086 17.1854 2.72968 17.7085 3.69959 17.7085V16.2085C3.25985 16.2085 2.83 15.9653 2.60282 15.5808L1.31138 16.3438ZM0.635017 15.1928L1.31048 16.3423L2.60372 15.5823L1.92826 14.4329L0.635017 15.1928ZM0.621749 12.4586C0.101475 13.3117 0.147561 14.3549 0.633354 15.19L1.92993 14.4357C1.69131 14.0255 1.69824 13.5744 1.90237 13.2397L0.621749 12.4586ZM1.68537 11.4344C1.24148 11.6771 0.836797 12.0622 0.603526 12.4902L1.9206 13.2081C2.00058 13.0613 2.18325 12.8717 2.40503 12.7505L1.68537 11.4344ZM2.03122 11.0735C1.88517 11.3005 1.80082 11.377 1.71559 11.4187L2.37481 12.7661C2.83779 12.5396 3.10585 12.1755 3.29264 11.8852L2.03122 11.0735ZM1.6459 9.7314C2.13107 10.0162 2.28745 10.6413 2.01715 11.0963L3.3067 11.8625C4.01533 10.6698 3.58436 9.13007 2.40535 8.43786L1.6459 9.7314ZM0.654814 5.99345C-0.112666 7.2978 0.316917 8.9828 1.65749 9.73806L2.39376 8.4312C1.79606 8.09446 1.59913 7.34641 1.94762 6.75413L0.654814 5.99345ZM1.3084 4.86706L0.652519 5.99737L1.94992 6.75021L2.6058 5.61989L1.3084 4.86706ZM5.08786 3.8632C3.74994 3.10388 2.08791 3.56497 1.31362 4.85821L2.60058 5.62874C2.96185 5.02535 3.72756 4.81591 4.34749 5.16775L5.08786 3.8632ZM6.53541 3.46248C6.24267 3.93989 5.57251 4.12466 5.07397 3.85551L4.36138 5.17544C5.56617 5.82587 7.10839 5.39758 7.81416 4.24657L6.53541 3.46248ZM6.65167 3.06256C6.65837 3.16091 6.63051 3.29929 6.52713 3.47631L7.82244 4.23274C8.03231 3.87334 8.18066 3.43699 8.1482 2.9606L6.65167 3.06256ZM7.04441 1.58869C6.77883 1.99902 6.62253 2.50835 6.65096 3.05083L8.14891 2.97233C8.13818 2.76765 8.19725 2.56813 8.30366 2.40373L7.04441 1.58869ZM9.38664 0.250269C8.4192 0.276205 7.52913 0.793399 7.03372 1.6057L8.31435 2.38672C8.54335 2.01123 8.96504 1.76211 9.42684 1.74973L9.38664 0.250269ZM10.787 0.25H9.40674V1.75H10.787V0.25ZM13.1698 1.6057C12.6814 0.804765 11.7914 0.25 10.787 0.25V1.75C11.2315 1.75 11.6533 1.99987 11.8892 2.38672L13.1698 1.6057ZM13.5415 3.07036C13.5861 2.50318 13.407 1.99253 13.1689 1.60416L11.8901 2.38826C12.0044 2.57463 12.0603 2.77282 12.0461 2.9528L13.5415 3.07036ZM13.6666 3.47631C13.5633 3.29929 13.5354 3.16091 13.5421 3.06256L12.0456 2.9606C12.0131 3.43699 12.1614 3.87334 12.3713 4.23274L13.6666 3.47631ZM15.1327 3.85382C14.6204 4.12729 13.9496 3.93746 13.6584 3.46248L12.3796 4.24657C13.0869 5.40001 14.6285 5.82324 15.839 5.17713L15.1327 3.85382ZM18.8831 4.86313C18.1183 3.56333 16.4412 3.10334 15.1129 3.86481L15.8589 5.16614C16.4689 4.81645 17.2391 5.02698 17.5903 5.62382L18.8831 4.86313ZM19.5412 5.99737L18.8854 4.86706L17.588 5.61989L18.2438 6.75021L19.5412 5.99737ZM18.5335 9.73964C19.8857 8.98541 20.319 7.29631 19.536 5.98852L18.2491 6.75906C18.6016 7.3479 18.4084 8.09186 17.8028 8.42963L18.5335 9.73964ZM18.183 11.0906C17.9088 10.6381 18.0627 10.0162 18.5479 9.7314L17.7884 8.43786C16.6094 9.13007 16.176 10.673 16.9002 11.8681L18.183 11.0906ZM18.4782 11.4187C18.395 11.378 18.3115 11.3027 18.1832 11.0909L16.9001 11.8679C17.085 12.1733 17.3539 12.5386 17.819 12.7661L18.4782 11.4187ZM10.1116 12.5398C8.96646 12.5398 8.08146 11.6561 8.08146 10.5885H6.58146C6.58146 12.5287 8.18293 14.0398 10.1116 14.0398V12.5398ZM12.1124 10.5885C12.1124 11.6664 11.2462 12.5398 10.1116 12.5398V14.0398C12.0508 14.0398 13.6124 12.5184 13.6124 10.5885H12.1124ZM10.1116 8.62768C11.2427 8.62768 12.1124 9.50722 12.1124 10.5885H13.6124C13.6124 8.66203 12.0543 7.12768 10.1116 7.12768V8.62768ZM8.08146 10.5885C8.08146 9.51752 8.96998 8.62768 10.1116 8.62768V7.12768C8.17941 7.12768 6.58146 8.65173 6.58146 10.5885H8.08146Z" fill="#E19722"/>
</svg>
